<?xml version="1.0" encoding="utf-8"?>
<!-- Generator: Adobe Illustrator 29.3.1, SVG Export Plug-In . SVG Version: 9.03 Build 55982)  -->
<svg version="1.1" baseProfile="tiny" id="Vrstva_1"
	 xmlns="http://www.w3.org/2000/svg" xmlns:xlink="http://www.w3.org/1999/xlink" x="0px" y="0px" viewBox="0 0 248 248"
	 overflow="visible" xml:space="preserve">
<path fill="#07BEB8" d="M112.8,232.9c-8.6-2.9-16.8-7-24.5-12.1c-7.7-5.2-14.6-11.2-20.5-18.1c-12.6-14.6-20.1-31.8-21.6-49.7
	c-1.1-11.5,0.5-23.1,4.4-33.4c4.2-10.9,11.1-20.4,19.9-27.5C77,86.9,84,83.3,91.3,81.4c5.4-1.5,10.9-2,16.4-1.5
	c-4.5-0.9-9.1-0.9-14.3-0.2C80,81.9,68.1,88.9,58.8,99.8c-8.6,10.1-14.3,23.3-16.2,37c-2.3,16.9,0.7,34.4,8.7,50.4
	c3.8,7.7,8.7,14.9,14.5,21.3c5.8,6.5,12.5,12.2,19.8,16.9l-0.5,0.7c-11.4-7.1-21-16.3-28.5-27.2c-7.6-11-12.8-23.4-15.4-36.8
	c-4-24.4,0.8-45.6,14.3-63c8.2-10.8,19.6-18.8,32.3-22.5c6.4-1.9,12.9-2.6,19.3-2.1c3.6,0.3,7.1,0.9,10.4,1.9
	c-7.2-2.8-15.4-3.9-24.2-3.1c-11.4,1.5-21.8,6.3-31.9,14.6c-8,6.9-14.3,15.2-18.7,24.8c-4.2,9-6.6,18.9-7.2,29.3
	c-1.1,18.5,3.6,37.5,12.9,53.6c3.4,5.8,7.4,11.3,12.1,16.5l-0.6,0.6c-4.6-5-8.7-10.6-12.1-16.6c-4.2-7-7.4-14.4-9.8-22
	c-4.5-14.7-5.3-29.8-2.4-45c3.2-15.1,10.1-28.7,20-39.2C66,78.7,79.3,71.6,93.9,69.3c13.4-1.8,25.7,0.6,35.7,6.7
	c-9.6-7-22.1-10.4-35.1-9.1c-11.4,1.2-20.3,4.4-28.2,9.9c-7.4,5.3-13.2,10.6-18.9,17.3c-10.9,13.3-17.1,30-18,48.3
	c-0.4,8.5,0.3,17.2,2.2,25.8c1.8,8.5,4.7,16.7,8.5,24.5l-0.8,0.4c-6.8-13.4-10.7-28.4-11.2-43.4c-0.5-15.4,2.7-30.5,9.1-43.8
	c5.1-10,11.8-18.5,19.7-25.3c8.3-7.1,17.9-12.1,28.5-15c11.6-3.2,24-3.1,35,0.3c8.9,2.8,16.4,7.5,22,13.9c-2.8-3.8-6.4-7.2-10.7-10
	c-6.3-4.2-14-7.2-22.1-8.6c-9.1-1.5-18.3-1-27.3,1.6c-8.5,2.4-16.9,6.6-25,12.6C50.2,80.7,44,87.2,39,94.5
	c-4.8,6.9-8.6,14.7-11.3,23c-5.1,16-6.1,33.7-2.9,51.2l-0.8,0.2l0,0l0,0c-2.2-11.7-2.6-23.2-1.3-34.2c1.4-11.7,4.9-22.8,10.2-33
	C40.5,88.3,48.7,78.8,59.4,71c9.5-6.7,20.3-10.9,33.9-13.2c6.6-1.1,13.3-1,20,0.2c6.6,1.2,12.9,3.4,18.7,6.6
	c9.4,5.2,16.7,12.6,21.1,21.4c-4.5-10.8-13.9-20.1-26.8-26.3c-16.3-7.4-36.1-7.2-54.4,0.5c-15.8,6.4-29.4,17.6-39.3,32.4
	c-4.1,6.2-7.5,12.8-10.1,19.8c-3.2,9.2-5.1,19.1-5.7,29.1H16c0.3-8.8,1.8-17.5,4.5-25.9c0.4-1.2,0.8-2.3,1.2-3.5
	c1.6-4.7,3.6-9.2,5.9-13.5C34.8,84.9,45,73.7,57.8,65.3c7.1-4.6,14.4-8.1,21.7-10.5c7.8-2.5,15.6-3.6,23.3-3.3
	c22.3,0.6,41.6,10.8,53,28.1c2.7,4.2,4.6,8.7,5.9,13.6c-1.4-7.7-4.8-15-10-21.6c-6.9-8.8-16.9-15.8-28-19.8
	c-11.4-3.9-23.2-5-35.1-3.3c-11.8,1.7-23.1,6.2-33.5,13.2c-18.3,11.9-31.6,29.2-39.3,51.4l0,0l0,0l-0.8-0.3l0,0l0,0
	c3.8-11.2,9.1-21.3,15.7-30.1c7-9.4,15.6-17.4,25.6-23.8c23.2-14.6,50.2-17.3,74.1-7.4c6,2.5,11.6,6,16.7,10.2
	c5.2,4.3,9.5,9.3,12.9,14.7c3.6,5.7,6.1,11.7,7.3,17.9c0.7,3.7,1,7.5,0.9,11.2c0.6-4.6,0.5-9.5-0.4-14.3c-1.4-7.6-4.7-15-9.4-21.6
	c-10.7-14.6-26.6-23.8-47.1-27.2C101.6,40.8,92,42,83,43.5c-12.3,2.3-23.9,7.3-34.4,14.9c-9.8,7-18.5,16.1-25.8,27.1L22.1,85
	C30.2,72.4,41.3,61.6,54,53.8c13-8,27.6-12.7,42.2-13.8c22.1-1.6,43.7,6.1,59.3,21.2c8.5,8.2,14.6,19.1,17.1,30.6
	c1.3,5.9,1.6,11.7,0.9,17.4c-0.4,3.4-1.1,6.7-2.2,9.8c2.6-5.7,4-12.1,3.9-18.9c-0.1-8.8-2.6-17.9-7.2-26.3
	c-3.6-7.2-8.5-13.6-14.6-19.1c-5.9-5.3-12.8-9.7-20.5-12.8c-15.9-6.6-31.5-8.3-47.7-5.2c-7.4,1.6-13.7,3.2-20.5,5.8
	c-11.2,5-20.4,10.9-28.8,18.4l-0.6-0.6c19.1-18.1,45.9-27.5,73.5-25.9c12.6,1.1,24.8,4.9,35.3,11c11.2,6.5,20.2,15.3,26.6,26.1
	c6,10.6,9,22.7,8.6,34.1c-0.3,8.5-2.6,16.3-6.5,23c3.5-5.1,6-11.2,7.3-17.9c1.8-9.7,1.1-20.5-2.2-30.4c-3.4-9.3-8.6-17.7-15.6-25.1
	c-6.9-7.3-15-13.1-24.2-17.3c-9.7-4.5-19.8-7.2-30.1-8.2s-20.9-0.2-31.3,2.4c-4.6,1.3-9,3-13.6,4.8c-2.6,1-5.3,2.1-8,3l-0.3-0.8
	c15.3-7.5,31.9-11.4,48-11.1c8.4,0.1,16.6,1.4,24.5,3.7c8.2,2.4,16,6,23.2,10.6c12.6,7.9,22.4,18.9,28.3,31.9
	c6,13.3,7.6,27.9,4.5,42.3c-2.4,9.8-7.3,18.4-14.2,25.1c5.2-4.2,9.5-9.7,12.6-16c4.6-9.1,6.5-19.9,5.5-30.2
	c-1-13-5.9-25.7-14.7-37.7c-10.4-13.9-25-24.2-42.1-29.8c-16.1-5.2-33.8-6.2-51.2-2.7L79,24.4c12.7-3.5,25.9-2.4,36-1.1
	c18.3,2.4,35.8,10.3,49.2,22.2c14.4,12.8,23.2,29.3,25.4,47.7c1.9,13.3-0.5,27-6.7,38.6c-3.2,5.9-7.2,11.1-12,15.3
	c-2.9,2.6-6.1,4.8-9.5,6.5c4.5-1.9,8.6-4.5,12.5-7.9c5.6-4.9,10.5-11.5,13.9-18.9c2.6-5.6,4.3-11.6,5.2-17.7
	c0.8-5.9,0.9-12.1,0-18.2c-1.6-12-6.3-24-13.6-34.8C171,44.2,160.2,34.7,147.3,28c-12.2-6.4-25.9-10.1-40.8-11.2l0,0V16
	c15.7,1.1,30.1,5.1,42.9,11.8c13.7,7.2,24.9,17.3,33.3,30l0,0c4,6.8,6.7,12.2,8.8,17.4c2.5,6.3,3.9,12.4,4.4,18.6
	c0.8,11.2-0.6,22.3-4,31.9c-3.8,10.7-9.9,19.6-18.3,26.4c-6.2,5.1-13.5,8.5-21.2,10.1c7.2-0.9,14.2-3.6,20.8-8
	c8.3-5.6,15.3-13.9,19.8-23.1c9.3-19.5,9.2-42.1-0.4-63.4c-5.3-11.9-13.4-22.9-23.4-31.8c-2.9-2.6-6-5-9.1-7.2
	c-7.6-5-16.1-9.1-25.4-12.2l0.3-0.8c8.9,2.6,17.6,6.8,25.6,12.3c1.6,1.1,3.2,2.2,4.8,3.3C175,38.4,182.9,47,189,56.9
	c4.4,7.3,7.8,15.1,10,23c2.2,7.8,3.2,16.1,3.2,24.6l0,0c-0.5,11.5-3.4,22.5-8.2,31.9c-5.3,10.3-12.9,18.5-22.5,24.3
	c-9.7,5.7-19.6,8.4-29.1,7.9c5.6,0.8,11.5,0.3,17.5-1.3c8.4-2.3,16.6-6.8,23.7-13.1c9.6-8.6,16.3-19.4,19.9-32.2
	c3.3-11.9,3.7-25.2,1-38.5c-2.5-12.5-7.6-24.2-15.1-34.7c-7.1-10.1-16.1-18.8-26.9-26.1L163,22c7.7,5,14.7,11,20.8,17.8
	c6.2,6.9,11.3,14.5,15.3,22.5c8.4,17.1,11.1,35.7,7.9,53.8c-2.7,14.4-8.9,27.3-17.8,37.3c-9.6,10.7-21.9,17.6-35.7,19.9
	c-7.6,1.1-14.3,0.8-20.5-0.7c5.7,2,11.9,2.8,18.3,2.4c10.1-0.7,20.2-4.2,29.2-10.3c23.4-16.2,30.3-41.1,31.9-59.2
	c0.8-12.3-1.2-24.7-5.7-36.9c-4.3-11.6-11.1-22.8-19.5-32.2l0.6-0.6c9,9.3,16.1,20.8,20.6,33.5c4.5,12.5,6.3,25.9,5.4,38.8
	c-0.8,11.3-3.7,22-8.6,31.6c-5.2,10.3-12.5,19.1-21.7,26.2c-10.6,8.2-23.7,13-36.7,13.4c-6.7,0.2-13.1-0.7-19.1-2.8
	c-3.4-1.2-6.6-2.7-9.6-4.5c4.6,3.4,9.9,6,15.7,7.6c8.6,2.4,17.8,2.5,26.7,0.4c9.1-2,17.6-5.8,25.1-11.1c7.1-5.1,13.3-11.5,18.5-19
	c9.9-14.7,15.1-32.8,14.5-51c-0.5-14.7-3.9-28.8-10.5-43l0.8-0.4c5.9,12,9.5,25.1,10.6,38c1.2,13.7-0.5,26.9-4.8,39.2
	c-7.5,21.4-23.5,38.7-43.9,47.6c-11.9,5-26.1,6.2-38.8,3.2c-6.6-1.5-12.7-4.1-18-7.7c-3.4-2.3-6.4-4.9-9-7.8
	c2.2,3.1,4.9,5.8,7.9,8.2c4.8,3.8,10.4,6.7,16.8,8.6c12,3.6,25.9,3.6,38.2-0.2c10.4-3.3,19.8-8.7,28-16.2c7.7-7,14.1-15.6,19-25.6
	c4.7-9.6,7.9-20,9.3-30.9c1.4-10.9,1-21.8-1.2-32.2l0,0l0,0l0.8-0.2c2.2,10.4,2.7,21.1,1.5,31.9s-4.1,21.1-8.6,30.7
	c-4.6,9.9-10.6,18.7-18,26c-7.8,7.7-16.8,13.7-26.8,17.7c-8.2,3.3-17.4,5-26.7,4.7s-18.4-2.4-26.4-6.2c-6.6-3.1-12.2-7.2-16.8-12.1
	c-2.4-2.6-4.5-5.5-6.3-8.5c3.2,6.9,8,12.8,14.3,17.7c9.2,7,20.3,11.2,32.2,12.2c11.2,1,22.9-0.9,33.8-5.4
	c15.8-6.5,29.4-17.9,39.4-33c4.7-7.2,8.5-15,11.3-23.3c1.8-5.5,3.2-11.1,4-16.8c0.4-2.9,0.7-5.7,0.9-8.6l0,0l0,0h0.8
	c-0.2,2.9-0.5,5.8-0.9,8.7c-2,13.8-6.7,27-13.8,38.7c-9,14.9-21.5,26.7-36.1,34c-14.4,6.9-29.1,9.5-45,7.9c-10-1-18.9-4.4-29.7-11.7
	c-6.6-4.8-11.9-10.7-15.7-17.5c-2.2-4.1-3.9-8.4-4.9-12.9c1.5,10.4,6.8,20.2,15.4,28.4c10.3,9.8,24.4,16.2,38.6,17.5
	c11.1,0.8,21.9-0.4,32.2-3.6c10.5-3.3,20.1-8.6,28.6-15.8c7.3-6,13.6-12.9,18.8-20.6c5.2-7.6,9.2-16,12.1-25l0.8,0.3
	c-5.8,18.7-17.7,35.8-33.5,48.3c-8,6.3-16.7,11.1-25.9,14.4c-9.7,3.4-19.6,4.9-29.5,4.5c-7.6-0.3-14.5-1.5-21.2-3.7
	c-6.9-2.3-13.3-5.6-19.6-10.1c-8.7-6.3-15.3-14.7-19.3-24.3c-2.6-6.4-4-13.2-4-19.9c-0.6,7.7,0.5,15.4,3.4,22.7
	c2.9,6.7,7,12.9,12.2,18.3c5,5.1,10.8,9.5,17.4,12.9c10.6,5.5,22.7,8.5,34.8,8.5c2.6,0,5.2-0.1,7.8-0.4c14.1-1.5,27.9-6.3,40-13.9
	c12-7.5,22.4-17.7,30.2-29.6l0.7,0.5c-6.9,11.2-16.6,21.3-28,29s-24.2,13-37.2,15.3c-10.9,2-21.6,1.8-31.9-0.5
	c-10.9-2.4-21-7.2-30-14.3c-6.6-5.2-12-11-16-17.2c-4.3-6.7-7.1-14.1-8.4-22c-1.1-7.6-0.5-15,1.8-22.9c-1.7,4.5-2.8,9.3-3.2,14.1
	c-0.7,7.9,0.5,15.9,3.3,23.3c4.6,11.2,12.2,21.2,22.1,28.8c9.8,7.5,21.5,12.6,33.9,14.7c14.2,2.5,28.5,1.6,42.5-2.8
	c1.2-0.4,2.4-0.8,3.6-1.2c11.9-4.4,22.9-10.9,33-19.6l0.6,0.6c-10.1,8.9-21.3,15.5-33.3,19.8c-5.9,2.2-12.1,3.9-18.6,5.1
	c-12.6,2.3-25.4,1.2-41.3-3.7c-12.7-3.7-24.1-10.7-32.8-20.2c-9-9.8-14.9-21.9-17-34.9c-2.2-13.1,0.3-26,6.9-36.6
	c-8.7,11.5-11.8,27.4-8.2,43.3c3.8,15.8,12.8,29.7,26.1,40.2c12.6,9.9,28.4,16.1,44.6,17.4c9.4,0.5,18.6,0,27.3-1.7
	c9.2-1.7,18-4.7,26.2-8.8l0.4,0.8c-14.7,7.6-30.3,11.4-45.9,11.4c-7.1,0-14.2-0.8-21.3-2.4c-23-5.2-41.6-18.8-54-39.2
	c-3.7-6.4-6.2-13.4-7.5-20.8c-1.3-7.3-1.4-14.6-0.2-21.8c2.1-12.5,8-23.5,16.8-31.4c-3.2,2.3-6.1,5.1-8.7,8.3
	c-3.8,4.8-6.8,10.4-8.8,16.7c-1.9,6-2.9,12.4-2.8,19c0,6.6,1.1,13,3,19.1c4.8,15.1,14.2,28.4,27.1,38.4
	c12.5,9.7,27.6,15.8,43.6,17.6c7,0.9,14.3,1.6,22,1c4.1-0.4,8.1-1.1,12-2.1l0.2,0.8c-4.2,1.1-8.3,1.8-12.2,2.1
	c-15.6,1.6-31.7-0.7-46.4-6.7c-9.3-3.8-17.8-9-25.2-15.5c-7.7-6.7-14-14.5-18.8-23.3c-4.8-9-7.5-18.5-8.3-28.2
	c-0.7-9.8,0.6-19.5,4-29c3-7.6,7.3-14.4,12.6-19.6c2.6-2.6,5.4-4.9,8.5-6.7c-4.2,2.2-8.1,5.1-11.7,8.5c-6.4,6.3-11.2,14.2-13.8,22.9
	c-5.6,18.4-3.4,38.3,6.3,56c3.8,7,8.7,13.5,14.3,19.2c5.5,5.5,11.7,10.3,18.6,14.4c13.4,7.8,29,12.5,45.2,13.6v0.8
	c-16.9-1.1-33.3-6.1-47.3-14.4c-7.2-4.3-13.8-9.5-19.4-15.3c-5.9-6.1-10.9-13-14.7-20.5c-6.2-12.1-9.3-25.2-8.9-37.7
	c0.2-6.5,1.3-12.9,3.4-19c2.1-6.3,5.2-12.4,9.2-17.9c7.9-11,18.8-18.4,30.8-21.1c-4.7,0.7-9.3,2.1-13.7,4.2
	c-6.9,3.3-13.1,8.3-18.5,14.8c-10.2,13.5-15.2,28.2-14.7,44c0.6,12.9,3.6,24.9,8.9,35.6c5.5,11,13.4,20.9,23.5,29.2
	c9.3,7.7,20.3,13.9,32.6,18.6l-0.3,0.8L112.8,232.9z M86.9,99.9l0.4,0.7c-11.8,7.9-19.7,20.4-22.2,35.3c-1.2,7-1.1,14.3,0.2,21.5
	c1.3,7.3,3.8,14.2,7.4,20.6c9.5,15.7,22.7,27.2,38.8,34.1c-6.2-2.8-12.1-6.3-17.4-10.5C80.6,191,71.5,176.9,67.7,161
	c-4.4-19.4,1.1-38.7,14.3-50.4l0.6,0.6c-10.3,11.3-14.7,26.9-12,42.8c2,12.9,7.8,24.8,16.7,34.5c8.1,8.8,18.5,15.4,30.1,19.2
	c-6.8-2.6-13.2-6.2-19-10.6c-10-7.7-17.7-17.8-22.4-29.1c-2.8-7.5-4-15.7-3.3-23.7c0.7-7.9,3.1-15.7,7-22.5l0.8,0.4
	c-4.6,11-6.1,20.8-4.7,30.8c1.3,7.8,4,15.1,8.3,21.7c3.9,6.1,9.2,11.8,15.8,17c8.9,7,18.8,11.7,29.6,14.1
	c10.1,2.2,20.7,2.4,31.5,0.5c7.8-1.4,15.5-3.9,22.9-7.3c-9.1,4-18.7,6.7-28.5,7.7c-2.6,0.3-5.3,0.4-7.9,0.4c-12.2,0-24.4-3-35.2-8.6
	c-6.7-3.5-12.6-7.9-17.6-13.1c-5.3-5.4-9.4-11.7-12.4-18.5c-4.3-10.6-4.8-22.2-1.6-33.5l0.8,0.2c-2,9.9-1,20.2,2.9,29.8
	c3.9,9.5,10.5,17.8,19,24c6.3,4.4,12.6,7.7,19.4,9.9c6.6,2.2,13.4,3.4,20.9,3.7c9.7,0.4,19.5-1.1,28.9-4.4c0,0-0.1,0-0.2,0
	c-10.3,3.2-21.2,4.4-32.5,3.6c-14.4-1.3-28.6-7.8-39.1-17.8c-11.3-10.8-17-24.4-16.1-38.5h0.8c0.3,7.8,2.3,15.2,6,21.9
	s8.9,12.5,15.4,17.2c10.7,7.1,19.5,10.6,29.3,11.5c15.7,1.6,30.3-1,44.5-7.9c7.8-3.9,14.9-9,21.2-15.2c-7.7,7.3-16.5,13.1-26.2,17
	c-11,4.6-22.8,6.5-34.2,5.5c-12-1-23.3-5.3-32.6-12.4c-9.3-7.2-15.3-16.7-18.1-28.1l0.8-0.2c2.1,6.7,5.6,12.8,10.4,17.9
	c4.5,4.9,10.1,8.9,16.6,11.9c7.9,3.7,16.9,5.8,26.1,6.1c9.2,0.3,18.3-1.3,26.4-4.6c9.9-3.9,18.8-9.8,26.5-17.5
	c1.9-1.9,3.7-3.8,5.4-5.9c-2.2,2.6-4.5,5-7,7.3c-8.3,7.6-17.8,13.1-28.3,16.4c-12.5,3.8-26.6,3.9-38.7,0.2c-6.5-2-12.2-4.9-17.1-8.8
	c-5.2-4.2-9.3-9.3-12.1-15.3l0.7-0.4c3.4,5.5,7.9,10.2,13.5,13.9c5.2,3.5,11.2,6,17.7,7.5c12.6,2.9,26.6,1.8,38.3-3.2
	c19.1-8.3,34.4-24.2,42.2-43.8c-2.1,5.1-4.8,10-7.9,14.6c-5.2,7.7-11.5,14.1-18.7,19.3c-7.6,5.4-16.2,9.2-25.4,11.3
	c-9,2.1-18.4,2-27.1-0.4c-9-2.5-16.9-7.3-22.8-14l0.6-0.6c4.8,4.4,10.4,7.8,16.6,9.9c5.9,2,12.2,3,18.8,2.8
	c12.9-0.4,25.7-5.1,36.2-13.2c9.1-7,16.3-15.8,21.5-25.9c4.8-9.5,7.7-20.1,8.5-31.3c0-0.2,0-0.4,0-0.6c-2,18.1-9.2,42.1-32.1,58
	c-9.2,6.2-19.4,9.8-29.6,10.5c-1.1,0-2.2,0.1-3.3,0.1c-9.6,0-18.5-2.7-26-7.9l0.5-0.7c8.6,5.2,18.6,6.9,30.8,5.2
	c13.6-2.2,25.8-9,35.2-19.6c8.8-9.9,14.9-22.7,17.6-36.9c2.6-14.5,1.4-29.3-3.6-43.4c1.2,3.5,2.1,7.1,2.9,10.8
	c2.7,13.4,2.3,26.8-1.1,38.9c-3.6,12.9-10.4,23.9-20.1,32.6c-7.2,6.4-15.5,10.9-24.1,13.3c-9.4,2.5-18.7,2.2-26.9-1.1l0.3-0.8
	c12,3.4,25,1.2,37.6-6.3c9.5-5.7,17-13.8,22.2-24c4.8-9.2,7.6-20.1,8.1-31.5c0-8.4-1.1-16.6-3.2-24.4c-2.2-7.9-5.5-15.6-9.9-22.8
	c-1.5-2.5-3.2-4.9-4.9-7.2c4,5.4,7.4,11.2,10.1,17.2c9.7,21.6,9.8,44.4,0.3,64.2c-4.6,9.4-11.7,17.8-20.1,23.5
	c-9.1,6.2-19.3,9.1-29.3,8.4v-0.8c10.6-0.5,20.6-4.3,28.7-11c8.2-6.7,14.3-15.5,18-26c3.4-9.5,4.7-20.4,3.9-31.6
	c-1.1-13.7-6.9-25.2-13.1-35.6c-2.9-4.5-6.3-8.6-9.9-12.4c2.9,3.1,5.5,6.3,8,9.8c7.4,10.9,12.2,23,13.8,35.1
	c0.8,6.2,0.8,12.4,0,18.4c-0.9,6.2-2.6,12.2-5.2,18c-3.5,7.6-8.4,14.2-14.1,19.2c-6.2,5.4-13.2,9-20.9,10.5l-0.2-0.8
	c6.3-2,12.1-5.3,17.1-9.6c4.7-4.1,8.7-9.2,11.8-15c6.1-11.4,8.4-24.9,6.6-38c-2.2-18.2-10.9-34.5-25.1-47.1
	c-2.1-1.9-4.4-3.7-6.7-5.4c6.1,4.7,11.6,10.2,16.3,16.4c8.8,12.1,13.8,25,14.8,38.1c1,10.5-0.9,21.4-5.6,30.6
	c-4.9,9.7-12.3,17.3-21.5,21.9l-0.4-0.7c11-6.8,18.8-17.8,21.9-30.8c3-14.2,1.5-28.6-4.4-41.7c-5.8-12.8-15.5-23.7-28-31.5
	c-7.2-4.6-14.9-8.1-23-10.5c-1.8-0.5-3.6-1-5.5-1.4c5.7,1.4,11.3,3.4,16.8,5.9c9.3,4.3,17.5,10.1,24.5,17.5
	c7.1,7.5,12.4,16,15.8,25.4c3.3,10.1,4,21,2.2,30.8c-2.1,10.9-7.2,20-15,26.5l-0.6-0.6c8.1-8.1,12.6-18.9,13.1-31.2
	c0.4-11.2-2.5-23.2-8.4-33.6c-6.3-10.7-15.2-19.3-26.3-25.8c-6.8-4-14.3-6.9-22.2-8.8c3.9,1,7.8,2.4,11.7,4
	c7.8,3.2,14.7,7.6,20.7,13c6.2,5.6,11.1,12.1,14.8,19.3c4.6,8.4,7.2,17.7,7.3,26.6c0.1,9.7-2.6,18.6-7.8,25.9l-0.7-0.5
	c5.5-9.9,6.9-21.5,4.3-33.6c-2.5-11.3-8.5-22-16.9-30.1c-15.4-14.9-36.8-22.5-58.6-20.9c-3.2,0.2-6.3,0.6-9.5,1.2
	c8-1.2,16.3-1.9,24.8-0.5c9.9,1.6,18.8,4.7,26.6,9c8.4,4.7,15.5,10.9,21.1,18.5c4.8,6.7,8.1,14.3,9.6,22c1.5,8,1,16-1.6,23.2
	l-0.8-0.2c1.5-6.4,1.6-13,0.3-19.5c-1.2-6.1-3.6-12-7.2-17.6c-3.4-5.4-7.7-10.2-12.8-14.5c-5-4.2-10.6-7.6-16.5-10.1
	c-23.6-9.8-50.4-7.1-73.3,7.3c-1.3,0.8-2.5,1.6-3.7,2.5c0.6-0.4,1.1-0.7,1.7-1.1c10.6-7.1,21.9-11.6,33.9-13.4
	c12-1.7,23.9-0.6,35.5,3.3c11.3,4,21.3,11.2,28.4,20.1c7.6,9.7,11.4,20.9,10.9,32.5h-0.8c-0.6-9-3-16.7-7.3-23.5
	c-11.2-17-30.3-27.1-52.3-27.7c-7.6-0.3-15.4,0.8-23,3.3c-7.3,2.3-14.5,5.8-21.5,10.4c-3.4,2.3-6.7,4.7-9.7,7.4
	c6.9-5.9,14.7-10.6,23-13.9c8.8-3.7,18.3-5.8,27.5-6c9.8-0.2,19.1,1.6,27.6,5.5c16.5,8,27.4,20.9,29.7,35.6l-0.8,0.2
	c-3.4-12.3-12-22.7-24-29.4c-5.7-3.1-11.9-5.3-18.4-6.5c-6.6-1.2-13.2-1.2-19.7-0.2c-13.6,2.4-24,6.4-33.5,13.1
	c-4.9,3.6-9.2,7.5-13.2,11.9c3.1-3.2,6.5-6.2,10.1-9c8.2-6,16.7-10.3,25.3-12.7c9.1-2.6,18.5-3.1,27.7-1.6c8.2,1.4,16,4.4,22.4,8.7
	c7,4.7,12.3,10.9,15.3,17.9l-0.8,0.4c-5.7-9.8-14.9-17-26.6-20.6c-10.8-3.4-23.1-3.4-34.5-0.3c-10.5,2.8-19.9,7.8-28.1,14.8
	c-7.9,6.7-14.4,15.1-19.5,25c-1.3,2.8-2.5,5.6-3.6,8.6c3-7.7,7.2-14.8,12.3-21.1c5.7-6.7,11.6-12.1,19-17.5
	c8-5.7,17.1-8.9,28.6-10.1c16.8-1.7,32.9,4.3,43,15.9l-0.6,0.6c-10.8-10.3-26-14.8-42.8-12.5c-14.4,2.2-27.5,9.3-37.8,20.3
	c-9.7,10.4-16.6,23.9-19.8,38.8c-0.1,0.8-0.3,1.5-0.4,2.3c1.2-6.7,3.2-13.1,6-19.2c4.5-9.7,10.9-18.1,19-25.1
	C71.3,78.8,81.9,74,93.4,72.5c12.5-1.1,23.9,1.4,32.9,7.4l-0.4,0.7c-5.8-3-12.1-4.8-18.7-5.4c-6.3-0.5-12.6,0.2-19,2
	c-12.5,3.6-23.8,11.5-31.8,22.2c-13.3,17.2-18.1,38.2-14.1,62.3c0.3,1.5,0.6,2.9,1,4.4c-2.1-9.8-2.6-19.8-1.3-29.6
	c1.9-13.9,7.7-27.2,16.4-37.4C67.8,88,79.9,81,93.5,78.7c7.7-1.1,14.7-0.4,21.3,2.1l-0.2,0.8C107,79.8,99.3,80,91.8,82
	c-7.2,1.9-14.1,5.5-20.5,10.6c-8.7,7-15.6,16.4-19.7,27.1c-3.9,10.2-5.4,21.7-4.4,33c0.7,8,2.6,15.8,5.6,23.4
	c-3.1-8.5-4.9-17.8-5.4-27.5c-0.5-15.9,4.5-30.9,14.8-44.5l0,0c5.5-6.6,11.8-11.6,18.8-15c7.4-3.6,15.2-5.2,23.2-4.6v0.8
	C89,85.8,74.7,93.8,65,107.2c-4,5.5-7,11.4-9.1,17.7c-2,6-3.1,12.3-3.3,18.8c-0.4,12.4,2.6,25.3,8.8,37.3c2.1,4.1,4.6,8,7.3,11.7
	c-2-2.8-3.8-5.7-5.4-8.7c-9.8-17.9-12-38.1-6.4-56.7c2.7-8.8,7.5-16.8,14.1-23.2c6.8-6.6,15-11.1,23.6-12.9l0.2,0.8
	c-7.3,2-13.8,5.9-19.4,11.5c-5.2,5.2-9.5,11.9-12.4,19.3c-3.4,9.3-4.7,19-4,28.6s3.5,19,8.2,27.9c4.7,8.7,11,16.4,18.6,23.1
	c0.6,0.5,1.2,1,1.7,1.5c-11.5-9.8-19.8-22.3-24.3-36.3c-2-6.2-3-12.7-3.1-19.4c0-6.7,0.9-13.2,2.9-19.3c2-6.4,5-12.1,8.9-16.9
	c4.2-5.2,9.3-9.3,15.2-12.3L86.9,99.9z"/>
</svg>
